Entire Austin Powers trilogy, packaged in 458MBs.


Welcome to the Recapstore.


(Wikipedia) The Austin Powers series is a series of three action-comedy films ΓÇô Austin Powers: International Man of Mystery (1997), Austin Powers: The Spy Who Shagged Me (1999) and Austin Powers in Goldmember (2002) ΓÇô directed by Jay Roach, produced, written by and starring Mike Myers as both the title character and the main antagonist Dr. Evil, and distributed by New Line Cinema. The franchise parodies numerous James Bond, Derek Flint, Jason King, and Matt Helm films, characters, and video games, incorporates myriad other elements of popular culture as it follows the British spy's quest to bring his nemesis to justice.

I think its funny because it contains sex jokes. And sex jokes are funny. PG-13 movies in general are awesome. This film is not in any way a crappy typical PG-13 comedy :P

Enjoy and Please seed to at least a 1.5 ratio!

Also please bear with us as initial seeding may be a little slow

and contact me @ the website or suprbay for reseed

Sample mediainfo from International Man of Mystery:

General
Codec ID                                 : mp42
File size                                : 159 MiB
Duration                                 : 1h 29mn
Overall bit rate mode                    : Variable
Overall bit rate                         : 249 Kbps
Encoded date                             : UTC 2012-12-29 23:52:51
Tagged date                              : UTC 2012-12-30 03:26:35
Writing application                      : HandBrake 0.9.8 2012071700

Video
ID                                       : 1
Format                                   : AVC
Format/Info                              : Advanced Video Codec
Format profile                           : High@L2.1
Format settings, CABAC                   : Yes
Format settings, ReFrames                : 15 frames
Codec ID                                 : avc1
Codec ID/Info                            : Advanced Video Coding
Duration                                 : 1h 29mn
Bit rate mode                            : Variable
Bit rate                                 : 180 Kbps
Width                                    : 352 pixels
Height                                   : 192 pixels
Display aspect ratio                     : 1.888
Original display aspect ratio            : 1.889
Frame rate mode                          : Variable
Frame rate                               : 23.976 fps
Minimum frame rate                       : 23.810 fps
Maximum frame rate                       : 24.390 fps
Color space                              : YUV
Chroma subsampling                       : 4:2:0
Bit depth                                : 8 bits
Scan type                                : Progressive
Bits/(Pixel*Frame)                       : 0.111
Stream size                              : 115 MiB (72%)
Writing library                          : x264 core 120
Encoding settings                        : cabac=1 / ref=16 / deblock=1:4:4 / analyse=0x3:0x133 / me=tesa / subme=10 / psy=1 / psy_rd=1.30:0.20 / mixed_ref=1 / me_range=64 / chroma_me=1 / trellis=2 / 8x8dct=1 / cqm=0 / deadzone=21,11 / fast_pskip=1 / chroma_qp_offset=-3 / threads=6 / sliced_threads=0 / nr=0 / decimate=1 / interlaced=0 / bluray_compat=0 / constrained_intra=0 / bframes=16 / b_pyramid=1 / b_adapt=2 / b_bias=0 / direct=1 / weightb=1 / open_gop=0 / weightp=2 / keyint=240 / keyint_min=24 / scenecut=40 / intra_refresh=0 / rc_lookahead=40 / rc=crf / mbtree=1 / crf=23.0 / qcomp=0.60 / qpmin=3 / qpmax=69 / qpstep=4 / ip_ratio=1.40 / aq=1:2.00
Encoded date                             : UTC 2012-12-29 23:52:51
Tagged date                              : UTC 2012-12-30 03:26:35
Color primaries                          : BT.601 NTSC
Transfer characteristics                 : BT.709
Matrix coefficients                      : BT.601

Audio
ID                                       : 2
Format                                   : AAC
Format/Info                              : Advanced Audio Codec
Format profile                           : LC
Codec ID                                 : 40
Duration                                 : 1h 29mn
Bit rate mode                            : Variable
Bit rate                                 : 63.9 Kbps
Maximum bit rate                         : 112 Kbps
Channel(s)                               : 2 channels
Channel positions                        : Front: L R
Sampling rate                            : 24.0 KHz
Compression mode                         : Lossy
Delay relative to video                  : 83ms
Stream size                              : 40.9 MiB (26%)